<?xml version="1.0" encoding="UTF-8" standalone="no"?>
<svg
   version="1.1"
   viewBox="0 0 525.65594 525.65595"
   fill="none"
   stroke="none"
   stroke-linecap="square"
   stroke-miterlimit="10"
   id="svg49"
   sodipodi:docname="logo.svg"
   inkscape:version="1.3.2 (091e20ef0f, 2023-11-25, custom)"
   width="525.65594"
   height="525.65594"
   xmlns:inkscape="http://www.inkscape.org/namespaces/inkscape"
   xmlns:sodipodi="http://sodipodi.sourceforge.net/DTD/sodipodi-0.dtd"
   xmlns="http://www.w3.org/2000/svg"
   xmlns:svg="http://www.w3.org/2000/svg">
  <defs
     id="defs49">
    <clipPath
       clipPathUnits="userSpaceOnUse"
       id="clipPath96">
      <g
         id="g97">
        <path
           d="M 0,0 H 960 V 540 H 0 Z"
           clip-rule="nonzero"
           id="path96" />
      </g>
    </clipPath>
    <clipPath
       clipPathUnits="userSpaceOnUse"
       id="clipPath98">
      <g
         id="g99">
        <path
           d="M 0,0 H 960 V 540 H 0 Z"
           clip-rule="nonzero"
           id="path98" />
      </g>
    </clipPath>
    <clipPath
       clipPathUnits="userSpaceOnUse"
       id="clipPath100">
      <g
         id="g101">
        <path
           d="M 0,0 H 960 V 540 H 0 Z"
           clip-rule="nonzero"
           id="path100" />
      </g>
    </clipPath>
    <clipPath
       clipPathUnits="userSpaceOnUse"
       id="clipPath102">
      <g
         id="g103">
        <path
           d="M 0,0 H 960 V 540 H 0 Z"
           clip-rule="nonzero"
           id="path102" />
      </g>
    </clipPath>
    <clipPath
       clipPathUnits="userSpaceOnUse"
       id="clipPath104">
      <g
         id="g105">
        <path
           d="M 0,0 H 960 V 540 H 0 Z"
           clip-rule="nonzero"
           id="path104" />
      </g>
    </clipPath>
    <clipPath
       clipPathUnits="userSpaceOnUse"
       id="clipPath106">
      <g
         id="g107">
        <path
           d="M 0,0 H 960 V 540 H 0 Z"
           clip-rule="nonzero"
           id="path106" />
      </g>
    </clipPath>
    <clipPath
       clipPathUnits="userSpaceOnUse"
       id="clipPath108">
      <g
         id="g109">
        <path
           d="M 0,0 H 960 V 540 H 0 Z"
           clip-rule="nonzero"
           id="path108" />
      </g>
    </clipPath>
    <clipPath
       clipPathUnits="userSpaceOnUse"
       id="clipPath110">
      <g
         id="g111">
        <path
           d="M 0,0 H 960 V 540 H 0 Z"
           clip-rule="nonzero"
           id="path110" />
      </g>
    </clipPath>
    <clipPath
       clipPathUnits="userSpaceOnUse"
       id="clipPath112">
      <g
         id="g113">
        <path
           d="M 0,0 H 960 V 540 H 0 Z"
           clip-rule="nonzero"
           id="path112" />
      </g>
    </clipPath>
    <clipPath
       clipPathUnits="userSpaceOnUse"
       id="clipPath114">
      <g
         id="g115">
        <path
           d="M 0,0 H 960 V 540 H 0 Z"
           clip-rule="nonzero"
           id="path114" />
      </g>
    </clipPath>
    <clipPath
       clipPathUnits="userSpaceOnUse"
       id="clipPath116">
      <g
         id="g117">
        <path
           d="M 0,0 H 960 V 540 H 0 Z"
           clip-rule="nonzero"
           id="path116" />
      </g>
    </clipPath>
    <clipPath
       clipPathUnits="userSpaceOnUse"
       id="clipPath118">
      <g
         id="g119">
        <path
           d="M 0,0 H 960 V 540 H 0 Z"
           clip-rule="nonzero"
           id="path118" />
      </g>
    </clipPath>
    <clipPath
       clipPathUnits="userSpaceOnUse"
       id="clipPath120">
      <g
         id="g121">
        <path
           d="M 0,0 H 960 V 540 H 0 Z"
           clip-rule="nonzero"
           id="path120" />
      </g>
    </clipPath>
    <clipPath
       clipPathUnits="userSpaceOnUse"
       id="clipPath122">
      <g
         id="g123">
        <path
           d="M 0,0 H 960 V 540 H 0 Z"
           clip-rule="nonzero"
           id="path122" />
      </g>
    </clipPath>
    <clipPath
       clipPathUnits="userSpaceOnUse"
       id="clipPath124">
      <g
         id="g125">
        <path
           d="M 0,0 H 960 V 540 H 0 Z"
           clip-rule="nonzero"
           id="path124" />
      </g>
    </clipPath>
    <clipPath
       clipPathUnits="userSpaceOnUse"
       id="clipPath126">
      <g
         id="g127">
        <path
           d="M 0,0 H 960 V 540 H 0 Z"
           clip-rule="nonzero"
           id="path126" />
      </g>
    </clipPath>
    <clipPath
       clipPathUnits="userSpaceOnUse"
       id="clipPath128">
      <g
         id="g129">
        <path
           d="M 0,0 H 960 V 540 H 0 Z"
           clip-rule="nonzero"
           id="path128" />
      </g>
    </clipPath>
    <clipPath
       clipPathUnits="userSpaceOnUse"
       id="clipPath130">
      <g
         id="g131">
        <path
           d="M 0,0 H 960 V 540 H 0 Z"
           clip-rule="nonzero"
           id="path130" />
      </g>
    </clipPath>
    <clipPath
       clipPathUnits="userSpaceOnUse"
       id="clipPath132">
      <g
         id="g133">
        <path
           d="M 0,0 H 960 V 540 H 0 Z"
           clip-rule="nonzero"
           id="path132" />
      </g>
    </clipPath>
    <clipPath
       clipPathUnits="userSpaceOnUse"
       id="clipPath134">
      <g
         id="g135">
        <path
           d="M 0,0 H 960 V 540 H 0 Z"
           clip-rule="nonzero"
           id="path134" />
      </g>
    </clipPath>
    <clipPath
       clipPathUnits="userSpaceOnUse"
       id="clipPath136">
      <g
         id="g137">
        <path
           d="M 0,0 H 960 V 540 H 0 Z"
           clip-rule="nonzero"
           id="path136" />
      </g>
    </clipPath>
    <clipPath
       clipPathUnits="userSpaceOnUse"
       id="clipPath138">
      <g
         id="g139">
        <path
           d="M 0,0 H 960 V 540 H 0 Z"
           clip-rule="nonzero"
           id="path138" />
      </g>
    </clipPath>
    <clipPath
       clipPathUnits="userSpaceOnUse"
       id="clipPath140">
      <g
         id="g141">
        <path
           d="M 0,0 H 960 V 540 H 0 Z"
           clip-rule="nonzero"
           id="path140" />
      </g>
    </clipPath>
  </defs>
  <sodipodi:namedview
     id="namedview49"
     pagecolor="#ffffff"
     bordercolor="#666666"
     borderopacity="1.0"
     inkscape:showpageshadow="2"
     inkscape:pageopacity="0.0"
     inkscape:pagecheckerboard="0"
     inkscape:deskcolor="#d1d1d1"
     inkscape:zoom="1.1102194"
     inkscape:cx="284.17806"
     inkscape:cy="258.50746"
     inkscape:window-width="1920"
     inkscape:window-height="1012"
     inkscape:window-x="0"
     inkscape:window-y="0"
     inkscape:window-maximized="1"
     inkscape:current-layer="svg49" />
  <path
     style="fill:#ffe3a6;fill-opacity:1;stroke-width:2.03735;stroke-linecap:round"
     id="path147"
     sodipodi:type="arc"
     sodipodi:cx="262.82797"
     sodipodi:cy="262.82797"
     sodipodi:rx="262.82797"
     sodipodi:ry="262.82797"
     sodipodi:start="0"
     sodipodi:end="6.2717566"
     sodipodi:open="true"
     sodipodi:arc-type="arc"
     d="M 525.65594,262.82797 A 262.82797,262.82797 0 0 1 263.57892,525.65487 262.82797,262.82797 0 0 1 0.00429116,264.32986 262.82797,262.82797 0 0 1 260.57516,0.00965508 262.82797,262.82797 0 0 1 525.63878,259.82425" />
  <g
     id="g148"
     transform="translate(-2.19104,3.637146)"
     inkscape:export-filename="hoi-logo.png"
     inkscape:export-xdpi="36.525791"
     inkscape:export-ydpi="36.525791">
    <g
       id="g28b2f7a1163_1_0.2"
       clip-path="url(#clipPath140)"
       transform="translate(-191.4147,-20.34907)">
      <path
         fill="#9fc5e8"
         d="M 502.38837,172.5019 C 483.81848,173.60857 471.43955,179.85491 460.95792,189.4613 450.47629,199.06766 444.72565,210.21622 439.4986,230.14016 434.27158,250.06409 426.81717,285.12804 429.59574,309.00491 432.3743,332.88177 443.65268,358.73513 456.17002,373.40142 468.68732,388.06771 485.88202,393.48428 504.69965,397.00262 523.51728,400.52096 552.40406,402.87258 569.07581,394.51147 585.7475,386.15035 597.41199,365.29717 604.72986,346.83596 612.04767,328.37475 613.42322,304.16213 612.98285,283.74416 612.54255,263.32619 608.85541,241.14858 602.08783,224.3281 595.32026,207.50762 588.99396,191.45901 572.37738,182.82131 555.76075,174.18362 520.95825,171.39524 502.38837,172.5019 Z"
         fill-rule="evenodd"
         id="path4" />
      <path
         stroke="#3d85c6"
         stroke-width="3"
         stroke-linejoin="round"
         stroke-linecap="butt"
         d="M 502.38837,172.5019 C 483.81848,173.60857 471.43955,179.85491 460.95792,189.4613 450.47629,199.06766 444.72565,210.21622 439.4986,230.14016 434.27158,250.06409 426.81717,285.12804 429.59574,309.00491 432.3743,332.88177 443.65268,358.73513 456.17002,373.40142 468.68732,388.06771 485.88202,393.48428 504.69965,397.00262 523.51728,400.52096 552.40406,402.87258 569.07581,394.51147 585.7475,386.15035 597.41199,365.29717 604.72986,346.83596 612.04767,328.37475 613.42322,304.16213 612.98285,283.74416 612.54255,263.32619 608.85541,241.14858 602.08783,224.3281 595.32026,207.50762 588.99396,191.45901 572.37738,182.82131 555.76075,174.18362 520.95825,171.39524 502.38837,172.5019 Z"
         fill-rule="evenodd"
         id="path5" />
    </g>
    <g
       id="g28b2f7a1163_1_0.3"
       clip-path="url(#clipPath138)"
       transform="translate(-191.4147,-20.34907)">
      <path
         fill="#a2c4c9"
         d="M 370.00165,167.69893 C 376.51874,164.1313 392.7507,162.61037 399.71396,165.20963 406.67722,167.80888 409.2197,169.76502 411.78116,183.29447 414.34262,196.8239 415.22022,221.89646 415.08273,246.38626 414.94525,270.87607 410.13098,306.71216 410.95624,330.23331 411.78147,353.75443 425.67398,376.99774 420.03418,387.51303 414.39438,398.02832 386.47092,398.30585 377.11737,393.32507 367.76383,388.34433 366.38895,371.46472 363.91293,357.62851 361.43689,343.7923 362.39871,327.32633 362.2612,310.30783 362.12372,293.28931 363.36298,276.13278 363.08798,255.51738 362.81302,234.90198 359.45908,201.25179 360.61136,186.61537 361.76361,171.97896 363.48453,171.26654 370.00165,167.69893 Z"
         fill-rule="evenodd"
         id="path6" />
      <path
         stroke="#134f5c"
         stroke-width="3"
         stroke-linejoin="round"
         stroke-linecap="butt"
         d="M 370.00165,167.69893 C 376.51874,164.1313 392.7507,162.61037 399.71396,165.20963 406.67722,167.80888 409.2197,169.76502 411.78116,183.29447 414.34262,196.8239 415.22022,221.89646 415.08273,246.38626 414.94525,270.87607 410.13098,306.71216 410.95624,330.23331 411.78147,353.75443 425.67398,376.99774 420.03418,387.51303 414.39438,398.02832 386.47092,398.30585 377.11737,393.32507 367.76383,388.34433 366.38895,371.46472 363.91293,357.62851 361.43689,343.7923 362.39871,327.32633 362.2612,310.30783 362.12372,293.28931 363.36298,276.13278 363.08798,255.51738 362.81302,234.90198 359.45908,201.25179 360.61136,186.61537 361.76361,171.97896 363.48453,171.26654 370.00165,167.69893 Z"
         fill-rule="evenodd"
         id="path7" />
    </g>
    <g
       id="g28b2f7a1163_1_0.4"
       clip-path="url(#clipPath136)"
       transform="translate(-191.4147,-20.34907)">
      <path
         fill="#9fc5e8"
         d="M 332.8607,162.71716 C 326.32615,158.39431 307.33458,156.78714 300.25651,162.51573 293.17842,168.24432 292.38594,173.53399 290.39219,197.0887 288.39845,220.6434 288.36876,275.39749 288.29405,303.84393 288.21931,332.29037 285.8174,353.65453 289.94389,367.76733 294.07042,381.88015 304.38701,386.30709 313.05308,388.52074 321.71919,390.73437 337.67619,387.41375 341.9405,381.04916 346.20478,374.68453 340.1522,361.81698 338.63893,350.333 337.12562,338.84902 333.10719,322.631 332.8607,312.14529 332.61421,301.65957 331.56849,291.74609 337.15992,287.41863 342.75135,283.09115 355.95518,286.45702 366.40925,286.18044 376.86332,285.90386 392.79216,289.01162 399.88432,285.75909 406.97648,282.50655 408.96229,273.16814 408.96229,266.66524 408.96229,260.16232 407.4499,250.20051 399.88432,246.7416 392.31874,243.28271 373.88542,246.32703 363.56883,245.91184 353.25227,245.49665 342.66163,249.09322 337.98485,244.25047 333.30809,239.40769 335.2617,226.15484 335.50822,216.85525 335.75471,207.55564 339.9051,197.47585 339.46385,188.45284 339.0226,179.42983 339.39528,167.04002 332.8607,162.71716 Z"
         fill-rule="evenodd"
         id="path8" />
      <path
         stroke="#3d85c6"
         stroke-width="3"
         stroke-linejoin="round"
         stroke-linecap="butt"
         d="M 332.8607,162.71716 C 326.32615,158.39431 307.33458,156.78714 300.25651,162.51573 293.17842,168.24432 292.38594,173.53399 290.39219,197.0887 288.39845,220.6434 288.36876,275.39749 288.29405,303.84393 288.21931,332.29037 285.8174,353.65453 289.94389,367.76733 294.07042,381.88015 304.38701,386.30709 313.05308,388.52074 321.71919,390.73437 337.67619,387.41375 341.9405,381.04916 346.20478,374.68453 340.1522,361.81698 338.63893,350.333 337.12562,338.84902 333.10719,322.631 332.8607,312.14529 332.61421,301.65957 331.56849,291.74609 337.15992,287.41863 342.75135,283.09115 355.95518,286.45702 366.40925,286.18044 376.86332,285.90386 392.79216,289.01162 399.88432,285.75909 406.97648,282.50655 408.96229,273.16814 408.96229,266.66524 408.96229,260.16232 407.4499,250.20051 399.88432,246.7416 392.31874,243.28271 373.88542,246.32703 363.56883,245.91184 353.25227,245.49665 342.66163,249.09322 337.98485,244.25047 333.30809,239.40769 335.2617,226.15484 335.50822,216.85525 335.75471,207.55564 339.9051,197.47585 339.46385,188.45284 339.0226,179.42983 339.39528,167.04002 332.8607,162.71716 Z"
         fill-rule="evenodd"
         id="path9" />
    </g>
    <g
       id="g28b2f7a1163_1_0.5"
       clip-path="url(#clipPath134)"
       transform="translate(-191.4147,-20.34907)">
      <path
         fill="#6fa8dc"
         d="M 462.6381,357.99515 V 357.99515 C 462.6381,350.64585 468.56065,344.68805 475.86646,344.68805 V 344.68805 C 479.37482,344.68805 482.73951,346.09003 485.22031,348.5856 487.70109,351.08118 489.0948,354.46588 489.0948,357.99515 V 357.99515 C 489.0948,365.34442 483.17228,371.30222 475.86646,371.30222 V 371.30222 C 468.56065,371.30222 462.6381,365.34442 462.6381,357.99515 Z"
         fill-rule="evenodd"
         id="path10" />
      <path
         stroke="#3d85c6"
         stroke-width="4"
         stroke-linejoin="round"
         stroke-linecap="butt"
         d="M 462.6381,357.99515 V 357.99515 C 462.6381,350.64585 468.56065,344.68805 475.86646,344.68805 V 344.68805 C 479.37482,344.68805 482.73951,346.09003 485.22031,348.5856 487.70109,351.08118 489.0948,354.46588 489.0948,357.99515 V 357.99515 C 489.0948,365.34442 483.17228,371.30222 475.86646,371.30222 V 371.30222 C 468.56065,371.30222 462.6381,365.34442 462.6381,357.99515 Z"
         fill-rule="evenodd"
         id="path11" />
    </g>
    <g
       id="g28b2f7a1163_1_0.6"
       clip-path="url(#clipPath132)"
       transform="translate(-191.4147,-20.34907)">
      <path
         fill="#76a5af"
         d="M 376.92392,357.99515 V 357.99515 C 376.92392,350.64585 382.84647,344.68805 390.15228,344.68805 V 344.68805 C 393.66064,344.68805 397.02533,346.09003 399.50613,348.5856 401.98691,351.08118 403.38062,354.46588 403.38062,357.99515 V 357.99515 C 403.38062,365.34442 397.4581,371.30222 390.15228,371.30222 V 371.30222 C 382.84647,371.30222 376.92392,365.34442 376.92392,357.99515 Z"
         fill-rule="evenodd"
         id="path12" />
      <path
         stroke="#45818e"
         stroke-width="4"
         stroke-linejoin="round"
         stroke-linecap="butt"
         d="M 376.92392,357.99515 V 357.99515 C 376.92392,350.64585 382.84647,344.68805 390.15228,344.68805 V 344.68805 C 393.66064,344.68805 397.02533,346.09003 399.50613,348.5856 401.98691,351.08118 403.38062,354.46588 403.38062,357.99515 V 357.99515 C 403.38062,365.34442 397.4581,371.30222 390.15228,371.30222 V 371.30222 C 382.84647,371.30222 376.92392,365.34442 376.92392,357.99515 Z"
         fill-rule="evenodd"
         id="path13" />
    </g>
    <g
       id="g28b2f7a1163_1_0.7"
       clip-path="url(#clipPath130)"
       transform="translate(-191.4147,-20.34907)">
      <path
         fill="#76a5af"
         d="M 372.06802,192.86058 V 192.86058 C 372.06802,185.51128 377.99054,179.5535 385.29635,179.5535 V 179.5535 C 388.80474,179.5535 392.16943,180.95549 394.6502,183.45105 397.13101,185.94661 398.52472,189.33133 398.52472,192.86058 V 192.86058 C 398.52472,200.20988 392.60217,206.16766 385.29635,206.16766 V 206.16766 C 377.99054,206.16766 372.06802,200.20988 372.06802,192.86058 Z"
         fill-rule="evenodd"
         id="path14" />
      <path
         stroke="#134f5c"
         stroke-width="4"
         stroke-linejoin="round"
         stroke-linecap="butt"
         d="M 372.06802,192.86058 V 192.86058 C 372.06802,185.51128 377.99054,179.5535 385.29635,179.5535 V 179.5535 C 388.80474,179.5535 392.16943,180.95549 394.6502,183.45105 397.13101,185.94661 398.52472,189.33133 398.52472,192.86058 V 192.86058 C 398.52472,200.20988 392.60217,206.16766 385.29635,206.16766 V 206.16766 C 377.99054,206.16766 372.06802,200.20988 372.06802,192.86058 Z"
         fill-rule="evenodd"
         id="path15" />
    </g>
    <g
       id="g28b2f7a1163_1_0.8"
       clip-path="url(#clipPath128)"
       transform="translate(-191.4147,-20.34907)">
      <path
         fill="#6fa8dc"
         d="M 372.06802,264.8451 V 264.8451 C 372.06802,257.49583 377.99054,251.53803 385.29635,251.53803 V 251.53803 C 388.80474,251.53803 392.16943,252.94002 394.6502,255.43558 397.13101,257.93113 398.52472,261.31586 398.52472,264.8451 V 264.8451 C 398.52472,272.1944 392.60217,278.1522 385.29635,278.1522 V 278.1522 C 377.99054,278.1522 372.06802,272.1944 372.06802,264.8451 Z"
         fill-rule="evenodd"
         id="path16" />
      <path
         stroke="#3d85c6"
         stroke-width="4"
         stroke-linejoin="round"
         stroke-linecap="butt"
         d="M 372.06802,264.8451 V 264.8451 C 372.06802,257.49583 377.99054,251.53803 385.29635,251.53803 V 251.53803 C 388.80474,251.53803 392.16943,252.94002 394.6502,255.43558 397.13101,257.93113 398.52472,261.31586 398.52472,264.8451 V 264.8451 C 398.52472,272.1944 392.60217,278.1522 385.29635,278.1522 V 278.1522 C 377.99054,278.1522 372.06802,272.1944 372.06802,264.8451 Z"
         fill-rule="evenodd"
         id="path17" />
    </g>
    <g
       id="g28b2f7a1163_1_0.9"
       clip-path="url(#clipPath126)"
       transform="translate(-191.4147,-20.34907)">
      <path
         fill="#6fa8dc"
         d="M 465.42523,200.70363 V 200.70363 C 465.42523,193.35433 471.34778,187.39655 478.65359,187.39655 V 187.39655 C 482.16195,187.39655 485.52664,188.79854 488.00744,191.2941 490.48822,193.78966 491.88193,197.17436 491.88193,200.70363 V 200.70363 C 491.88193,208.05293 485.95941,214.01071 478.65359,214.01071 V 214.01071 C 471.34778,214.01071 465.42523,208.05293 465.42523,200.70363 Z"
         fill-rule="evenodd"
         id="path18" />
      <path
         stroke="#3d85c6"
         stroke-width="4"
         stroke-linejoin="round"
         stroke-linecap="butt"
         d="M 465.42523,200.70363 V 200.70363 C 465.42523,193.35433 471.34778,187.39655 478.65359,187.39655 V 187.39655 C 482.16195,187.39655 485.52664,188.79854 488.00744,191.2941 490.48822,193.78966 491.88193,197.17436 491.88193,200.70363 V 200.70363 C 491.88193,208.05293 485.95941,214.01071 478.65359,214.01071 V 214.01071 C 471.34778,214.01071 465.42523,208.05293 465.42523,200.70363 Z"
         fill-rule="evenodd"
         id="path19" />
    </g>
    <g
       id="g28b2f7a1163_1_0.10"
       clip-path="url(#clipPath124)"
       transform="translate(-191.4147,-20.34907)">
      <path
         fill="#6fa8dc"
         d="M 546.37537,200.70363 V 200.70363 C 546.37537,193.35433 552.29792,187.39655 559.6037,187.39655 V 187.39655 C 563.11213,187.39655 566.47675,188.79854 568.95758,191.2941 571.43836,193.78966 572.8321,197.17436 572.8321,200.70363 V 200.70363 C 572.8321,208.05293 566.90955,214.01071 559.6037,214.01071 V 214.01071 C 552.29792,214.01071 546.37537,208.05293 546.37537,200.70363 Z"
         fill-rule="evenodd"
         id="path20" />
      <path
         stroke="#3d85c6"
         stroke-width="4"
         stroke-linejoin="round"
         stroke-linecap="butt"
         d="M 546.37537,200.70363 V 200.70363 C 546.37537,193.35433 552.29792,187.39655 559.6037,187.39655 V 187.39655 C 563.11213,187.39655 566.47675,188.79854 568.95758,191.2941 571.43836,193.78966 572.8321,197.17436 572.8321,200.70363 V 200.70363 C 572.8321,208.05293 566.90955,214.01071 559.6037,214.01071 V 214.01071 C 552.29792,214.01071 546.37537,208.05293 546.37537,200.70363 Z"
         fill-rule="evenodd"
         id="path21" />
    </g>
    <g
       id="g28b2f7a1163_1_0.11"
       clip-path="url(#clipPath122)"
       transform="translate(-191.4147,-20.34907)">
      <path
         fill="#6fa8dc"
         d="M 551.29285,369.41043 V 369.41043 C 551.29285,362.06113 557.21534,356.10333 564.52118,356.10333 V 356.10333 C 568.02954,356.10333 571.39423,357.50534 573.875,360.00088 576.35584,362.49646 577.74952,365.88116 577.74952,369.41043 V 369.41043 C 577.74952,376.75973 571.82697,382.7175 564.52118,382.7175 V 382.7175 C 557.21534,382.7175 551.29285,376.75973 551.29285,369.41043 Z"
         fill-rule="evenodd"
         id="path22" />
      <path
         stroke="#3d85c6"
         stroke-width="4"
         stroke-linejoin="round"
         stroke-linecap="butt"
         d="M 551.29285,369.41043 V 369.41043 C 551.29285,362.06113 557.21534,356.10333 564.52118,356.10333 V 356.10333 C 568.02954,356.10333 571.39423,357.50534 573.875,360.00088 576.35584,362.49646 577.74952,365.88116 577.74952,369.41043 V 369.41043 C 577.74952,376.75973 571.82697,382.7175 564.52118,382.7175 V 382.7175 C 557.21534,382.7175 551.29285,376.75973 551.29285,369.41043 Z"
         fill-rule="evenodd"
         id="path23" />
    </g>
    <g
       id="g28b2f7a1163_1_0.12"
       clip-path="url(#clipPath120)"
       transform="translate(-191.4147,-20.34907)">
      <path
         fill="#6fa8dc"
         d="M 580.7397,285.05704 V 285.05704 C 580.7397,277.70774 586.66225,271.74994 593.96803,271.74994 V 271.74994 C 597.47639,271.74994 600.84108,273.15192 603.32191,275.64749 605.80269,278.14307 607.19637,281.52777 607.19637,285.05704 V 285.05704 C 607.19637,292.40634 601.27382,298.36411 593.96803,298.36411 V 298.36411 C 586.66225,298.36411 580.7397,292.40634 580.7397,285.05704 Z"
         fill-rule="evenodd"
         id="path24" />
      <path
         stroke="#3d85c6"
         stroke-width="4"
         stroke-linejoin="round"
         stroke-linecap="butt"
         d="M 580.7397,285.05704 V 285.05704 C 580.7397,277.70774 586.66225,271.74994 593.96803,271.74994 V 271.74994 C 597.47639,271.74994 600.84108,273.15192 603.32191,275.64749 605.80269,278.14307 607.19637,281.52777 607.19637,285.05704 V 285.05704 C 607.19637,292.40634 601.27382,298.36411 593.96803,298.36411 V 298.36411 C 586.66225,298.36411 580.7397,292.40634 580.7397,285.05704 Z"
         fill-rule="evenodd"
         id="path25" />
    </g>
    <g
       id="g28b2f7a1163_1_0.13"
       clip-path="url(#clipPath118)"
       transform="translate(-191.4147,-20.34907)">
      <path
         fill="#6fa8dc"
         d="M 438.11697,276.5644 V 276.5644 C 438.11697,269.2151 444.03949,263.25733 451.3453,263.25733 V 263.25733 C 454.85369,263.25733 458.21838,264.65931 460.69915,267.15488 463.17996,269.65043 464.57367,273.03513 464.57367,276.5644 V 276.5644 C 464.57367,283.9137 458.65112,289.8715 451.3453,289.8715 V 289.8715 C 444.03949,289.8715 438.11697,283.9137 438.11697,276.5644 Z"
         fill-rule="evenodd"
         id="path26" />
      <path
         stroke="#3d85c6"
         stroke-width="4"
         stroke-linejoin="round"
         stroke-linecap="butt"
         d="M 438.11697,276.5644 V 276.5644 C 438.11697,269.2151 444.03949,263.25733 451.3453,263.25733 V 263.25733 C 454.85369,263.25733 458.21838,264.65931 460.69915,267.15488 463.17996,269.65043 464.57367,273.03513 464.57367,276.5644 V 276.5644 C 464.57367,283.9137 458.65112,289.8715 451.3453,289.8715 V 289.8715 C 444.03949,289.8715 438.11697,283.9137 438.11697,276.5644 Z"
         fill-rule="evenodd"
         id="path27" />
    </g>
    <g
       id="g28b2f7a1163_1_0.14"
       clip-path="url(#clipPath116)"
       transform="translate(-191.4147,-20.34907)">
      <path
         fill="#b4a7d6"
         d="M 636.9307,166.73912 C 644.49631,163.35998 663.15195,160.7144 669.2042,165.58014 675.25651,170.44589 671.73136,182.82329 673.24436,195.93361 674.75736,209.04393 678.13029,222.53967 678.28214,244.24208 678.43406,265.94449 673.33042,303.17145 674.15568,326.14804 674.98087,349.12466 688.87345,371.82989 683.23362,382.10174 677.59379,392.37362 649.67039,392.64471 640.31681,387.77926 630.96329,382.91382 629.58835,366.42495 627.11234,352.90905 624.63633,339.39315 625.59812,323.30838 625.46067,306.68383 625.32316,290.05929 626.56241,273.29998 626.28739,253.16181 626.01243,233.02365 622.0369,200.25868 623.81077,185.8549 625.58469,171.45111 629.36515,170.11824 636.9307,166.73912 Z"
         fill-rule="evenodd"
         id="path28" />
      <path
         stroke="#674ea7"
         stroke-width="3"
         stroke-linejoin="round"
         stroke-linecap="butt"
         d="M 636.9307,166.73912 C 644.49631,163.35998 663.15195,160.7144 669.2042,165.58014 675.25651,170.44589 671.73136,182.82329 673.24436,195.93361 674.75736,209.04393 678.13029,222.53967 678.28214,244.24208 678.43406,265.94449 673.33042,303.17145 674.15568,326.14804 674.98087,349.12466 688.87345,371.82989 683.23362,382.10174 677.59379,392.37362 649.67039,392.64471 640.31681,387.77926 630.96329,382.91382 629.58835,366.42495 627.11234,352.90905 624.63633,339.39315 625.59812,323.30838 625.46067,306.68383 625.32316,290.05929 626.56241,273.29998 626.28739,253.16181 626.01243,233.02365 622.0369,200.25868 623.81077,185.8549 625.58469,171.45111 629.36515,170.11824 636.9307,166.73912 Z"
         fill-rule="evenodd"
         id="path29" />
    </g>
    <g
       id="g28b2f7a1163_1_0.15"
       clip-path="url(#clipPath114)"
       transform="translate(-191.4147,-20.34907)">
      <path
         fill="#8e7cc3"
         d="M 640.1239,357.99515 V 357.99515 C 640.1239,350.64585 646.04645,344.68805 653.35229,344.68805 V 344.68805 C 656.86066,344.68805 660.22534,346.09003 662.70612,348.5856 665.18695,351.08118 666.58063,354.46588 666.58063,357.99515 V 357.99515 C 666.58063,365.34442 660.65808,371.30222 653.35229,371.30222 V 371.30222 C 646.04645,371.30222 640.1239,365.34442 640.1239,357.99515 Z"
         fill-rule="evenodd"
         id="path30" />
      <path
         stroke="#674ea7"
         stroke-width="4"
         stroke-linejoin="round"
         stroke-linecap="butt"
         d="M 640.1239,357.99515 V 357.99515 C 640.1239,350.64585 646.04645,344.68805 653.35229,344.68805 V 344.68805 C 656.86066,344.68805 660.22534,346.09003 662.70612,348.5856 665.18695,351.08118 666.58063,354.46588 666.58063,357.99515 V 357.99515 C 666.58063,365.34442 660.65808,371.30222 653.35229,371.30222 V 371.30222 C 646.04645,371.30222 640.1239,365.34442 640.1239,357.99515 Z"
         fill-rule="evenodd"
         id="path31" />
    </g>
    <g
       id="g28b2f7a1163_1_0.16"
       clip-path="url(#clipPath112)"
       transform="translate(-191.4147,-20.34907)">
      <path
         fill="#8e7cc3"
         d="M 635.268,192.86058 V 192.86058 C 635.268,185.51128 641.19055,179.5535 648.49633,179.5535 V 179.5535 C 652.00476,179.5535 655.36944,180.95549 657.85021,183.45105 660.33099,185.94661 661.72473,189.33133 661.72473,192.86058 V 192.86058 C 661.72473,200.20988 655.80218,206.16766 648.49633,206.16766 V 206.16766 C 641.19055,206.16766 635.268,200.20988 635.268,192.86058 Z"
         fill-rule="evenodd"
         id="path32" />
      <path
         stroke="#674ea7"
         stroke-width="4"
         stroke-linejoin="round"
         stroke-linecap="butt"
         d="M 635.268,192.86058 V 192.86058 C 635.268,185.51128 641.19055,179.5535 648.49633,179.5535 V 179.5535 C 652.00476,179.5535 655.36944,180.95549 657.85021,183.45105 660.33099,185.94661 661.72473,189.33133 661.72473,192.86058 V 192.86058 C 661.72473,200.20988 655.80218,206.16766 648.49633,206.16766 V 206.16766 C 641.19055,206.16766 635.268,200.20988 635.268,192.86058 Z"
         fill-rule="evenodd"
         id="path33" />
    </g>
    <g
       id="g28b2f7a1163_1_0.17"
       clip-path="url(#clipPath110)"
       transform="translate(-191.4147,-20.34907)">
      <path
         fill="#8e7cc3"
         d="M 639.0335,271.48694 V 271.48694 C 639.0335,264.13764 644.95605,258.17984 652.26183,258.17984 V 258.17984 C 655.77019,258.17984 659.13488,259.58185 661.61571,262.07739 664.09649,264.57297 665.49017,267.95767 665.49017,271.48694 V 271.48694 C 665.49017,278.83624 659.56768,284.79401 652.26183,284.79401 V 284.79401 C 644.95605,284.79401 639.0335,278.83624 639.0335,271.48694 Z"
         fill-rule="evenodd"
         id="path34" />
      <path
         stroke="#674ea7"
         stroke-width="4"
         stroke-linejoin="round"
         stroke-linecap="butt"
         d="M 639.0335,271.48694 V 271.48694 C 639.0335,264.13764 644.95605,258.17984 652.26183,258.17984 V 258.17984 C 655.77019,258.17984 659.13488,259.58185 661.61571,262.07739 664.09649,264.57297 665.49017,267.95767 665.49017,271.48694 V 271.48694 C 665.49017,278.83624 659.56768,284.79401 652.26183,284.79401 V 284.79401 C 644.95605,284.79401 639.0335,278.83624 639.0335,271.48694 Z"
         fill-rule="evenodd"
         id="path35" />
    </g>
    <g
       id="g28b2f7a1163_1_0.18"
       clip-path="url(#clipPath108)"
       transform="translate(-191.4147,-20.34907)">
      <path
         fill="#000000"
         fill-opacity="0"
         d="M 229.14247,196.75497 C 229.84177,192.32739 232.02714,170.05122 233.3383,170.18951 234.64944,170.32782 235.6983,197.30815 237.00935,197.58473 238.3204,197.86132 239.80618,172.81773 241.2046,171.84906 242.60301,170.88037 244.21985,192.32617 245.39984,191.77267 246.57985,191.21919 247.10461,169.7734 248.28462,168.52813 249.46463,167.28286 251.16882,183.4707 252.47987,184.30108 253.79092,185.13147 255.14575,170.32812 256.15094,173.51043 257.1561,176.69275 257.50577,201.87309 258.51092,203.39494 259.51611,204.91681 260.82718,184.99348 262.18201,182.64155 263.53683,180.28962 265.19772,190.66694 266.63992,189.28338 268.08212,187.89982 269.52411,172.12657 270.83517,174.34019 272.14621,176.55383 273.41357,202.14999 274.50622,202.56518 275.59888,202.98037 276.38583,177.38482 277.39102,176.83134 278.39618,176.27786 279.13888,198.6911 280.53729,199.24427 281.9357,199.79745 284.38299,180.28871 285.78149,180.1504 287.18002,180.01211 287.92319,200.07464 288.92837,198.4145 289.93356,196.75436 290.72003,172.12657 291.81256,170.18951 292.90512,168.25247 293.95398,184.5786 295.48361,186.79223 297.01327,189.00587 300.07269,184.02481 300.99051,183.47133"
         fill-rule="evenodd"
         id="path36" />
      <path
         stroke="#351c75"
         stroke-width="3"
         stroke-linejoin="round"
         stroke-linecap="butt"
         d="M 229.14247,196.75497 C 229.84177,192.32739 232.02714,170.05122 233.3383,170.18951 234.64944,170.32782 235.6983,197.30815 237.00935,197.58473 238.3204,197.86132 239.80618,172.81773 241.2046,171.84906 242.60301,170.88037 244.21985,192.32617 245.39984,191.77267 246.57985,191.21919 247.10461,169.7734 248.28462,168.52813 249.46463,167.28286 251.16882,183.4707 252.47987,184.30108 253.79092,185.13147 255.14575,170.32812 256.15094,173.51043 257.1561,176.69275 257.50577,201.87309 258.51092,203.39494 259.51611,204.91681 260.82718,184.99348 262.18201,182.64155 263.53683,180.28962 265.19772,190.66694 266.63992,189.28338 268.08212,187.89982 269.52411,172.12657 270.83517,174.34019 272.14621,176.55383 273.41357,202.14999 274.50622,202.56518 275.59888,202.98037 276.38583,177.38482 277.39102,176.83134 278.39618,176.27786 279.13888,198.6911 280.53729,199.24427 281.9357,199.79745 284.38299,180.28871 285.78149,180.1504 287.18002,180.01211 287.92319,200.07464 288.92837,198.4145 289.93356,196.75436 290.72003,172.12657 291.81256,170.18951 292.90512,168.25247 293.95398,184.5786 295.48361,186.79223 297.01327,189.00587 300.07269,184.02481 300.99051,183.47133"
         fill-rule="evenodd"
         id="path37" />
    </g>
    <g
       id="g28b2f7a1163_1_0.19"
       clip-path="url(#clipPath106)"
       transform="translate(-191.4147,-20.34907)">
      <path
         fill="#000000"
         fill-opacity="0"
         d="M 228.21536,262.39148 C 228.92828,260.15723 231.19652,248.2941 232.4929,248.98587 233.78927,249.67764 234.70328,266.2656 235.99363,266.54218 237.28398,266.81876 239.01408,247.88722 240.23497,250.6454 241.45587,253.4036 242.15765,283.64478 243.319,283.09128 244.48034,282.53781 245.88283,248.84634 247.20303,247.32449 248.52322,245.80264 249.94999,273.12979 251.24019,273.96017 252.53038,274.79056 254.00573,252.57475 254.94418,252.30678 255.88263,252.03882 255.8817,270.83054 256.87088,272.35239 257.86007,273.87424 259.45529,261.44684 260.87927,261.4379 262.30325,261.42899 263.99548,273.68234 265.41482,272.2988 266.83416,270.91522 268.09033,253.40421 269.39538,253.13655 270.70041,252.8689 271.96292,269.43619 273.24505,270.69284 274.52722,271.94952 275.79205,260.53821 277.08825,260.67651 278.38449,260.81482 279.85287,271.81091 281.0224,271.52261 282.19195,271.23431 283.07565,257.99872 284.1055,258.94675 285.13537,259.89481 286.28262,277.05191 287.2016,277.21085 288.12054,277.36978 288.54391,261.8374 289.61926,259.90033 290.69458,257.96329 292.07791,265.19403 293.65362,265.58859 295.22937,265.98316 298.17032,262.82117 299.07364,262.26767"
         fill-rule="evenodd"
         id="path38" />
      <path
         stroke="#351c75"
         stroke-width="3"
         stroke-linejoin="round"
         stroke-linecap="butt"
         d="M 228.21536,262.39148 C 228.92828,260.15723 231.19652,248.2941 232.4929,248.98587 233.78927,249.67764 234.70328,266.2656 235.99363,266.54218 237.28398,266.81876 239.01408,247.88722 240.23497,250.6454 241.45587,253.4036 242.15765,283.64478 243.319,283.09128 244.48034,282.53781 245.88283,248.84634 247.20303,247.32449 248.52322,245.80264 249.94999,273.12979 251.24019,273.96017 252.53038,274.79056 254.00573,252.57475 254.94418,252.30678 255.88263,252.03882 255.8817,270.83054 256.87088,272.35239 257.86007,273.87424 259.45529,261.44684 260.87927,261.4379 262.30325,261.42899 263.99548,273.68234 265.41482,272.2988 266.83416,270.91522 268.09033,253.40421 269.39538,253.13655 270.70041,252.8689 271.96292,269.43619 273.24505,270.69284 274.52722,271.94952 275.79205,260.53821 277.08825,260.67651 278.38449,260.81482 279.85287,271.81091 281.0224,271.52261 282.19195,271.23431 283.07565,257.99872 284.1055,258.94675 285.13537,259.89481 286.28262,277.05191 287.2016,277.21085 288.12054,277.36978 288.54391,261.8374 289.61926,259.90033 290.69458,257.96329 292.07791,265.19403 293.65362,265.58859 295.22937,265.98316 298.17032,262.82117 299.07364,262.26767"
         fill-rule="evenodd"
         id="path39" />
    </g>
    <g
       id="g28b2f7a1163_1_0.20"
       clip-path="url(#clipPath104)"
       transform="translate(-191.4147,-20.34907)">
      <path
         fill="#000000"
         fill-opacity="0"
         d="M 231.55516,368.83258 C 232.29045,365.10049 234.57997,346.02508 235.96687,346.43997 237.35377,346.85486 238.58878,371.04529 239.87656,371.32187 241.16435,371.59848 242.26489,346.9685 243.69363,348.09952 245.12236,349.2305 247.14343,377.83465 248.44897,378.10785 249.75452,378.38104 250.23323,350.56879 251.5269,349.73871 252.82056,348.90863 255.06979,373.12372 256.21094,373.12741 257.35205,373.1311 257.55939,349.09314 258.37372,349.76089 259.18805,350.42865 259.8801,377.96771 261.09686,377.13394 262.31366,376.30017 264.21802,346.28012 265.67438,344.75827 267.13077,343.23642 268.6481,367.03076 269.83508,368.00281 271.02206,368.97488 271.6868,348.93051 272.79629,350.59067 273.90579,352.25079 275.41882,377.54852 276.49203,377.96371 277.56525,378.37891 277.91751,354.57965 279.23556,353.08182 280.55362,351.58398 283.0267,368.42355 284.40033,368.97671 285.77396,369.52991 286.44949,355.45282 287.47729,356.40088 288.50513,357.34891 289.62421,376.3288 290.56726,374.66498 291.51034,373.00113 292.06253,348.35486 293.13574,346.41782 294.20895,344.48077 295.45987,360.82538 297.00653,363.04269 298.55322,365.26004 301.51428,360.27527 302.4158,359.72177"
         fill-rule="evenodd"
         id="path40" />
      <path
         stroke="#351c75"
         stroke-width="3"
         stroke-linejoin="round"
         stroke-linecap="butt"
         d="M 231.55516,368.83258 C 232.29045,365.10049 234.57997,346.02508 235.96687,346.43997 237.35377,346.85486 238.58878,371.04529 239.87656,371.32187 241.16435,371.59848 242.26489,346.9685 243.69363,348.09952 245.12236,349.2305 247.14343,377.83465 248.44897,378.10785 249.75452,378.38104 250.23323,350.56879 251.5269,349.73871 252.82056,348.90863 255.06979,373.12372 256.21094,373.12741 257.35205,373.1311 257.55939,349.09314 258.37372,349.76089 259.18805,350.42865 259.8801,377.96771 261.09686,377.13394 262.31366,376.30017 264.21802,346.28012 265.67438,344.75827 267.13077,343.23642 268.6481,367.03076 269.83508,368.00281 271.02206,368.97488 271.6868,348.93051 272.79629,350.59067 273.90579,352.25079 275.41882,377.54852 276.49203,377.96371 277.56525,378.37891 277.91751,354.57965 279.23556,353.08182 280.55362,351.58398 283.0267,368.42355 284.40033,368.97671 285.77396,369.52991 286.44949,355.45282 287.47729,356.40088 288.50513,357.34891 289.62421,376.3288 290.56726,374.66498 291.51034,373.00113 292.06253,348.35486 293.13574,346.41782 294.20895,344.48077 295.45987,360.82538 297.00653,363.04269 298.55322,365.26004 301.51428,360.27527 302.4158,359.72177"
         fill-rule="evenodd"
         id="path41" />
    </g>
    <g
       id="g28b2f7a1163_1_0.21"
       clip-path="url(#clipPath102)"
       transform="translate(-191.4147,-20.34907)">
      <path
         fill="#ffe3a6"
         d="M 511.97183,219.96588 C 501.94409,220.59913 495.3931,223.01988 489.59939,229.67038 483.80572,236.32088 479.8096,248.70555 477.20971,259.86883 474.60986,271.03213 472.36618,284.14084 474.00021,296.65011 475.63424,309.15942 480.47729,326.29464 487.01391,334.92456 493.55053,343.5545 503.05841,346.41638 513.21991,348.42965 523.38147,350.44293 538.98034,351.78857 547.98303,347.00418 556.98578,342.21979 563.2846,330.28717 567.2362,319.72329 571.18786,309.15942 572.36139,295.65521 571.69287,283.62091 571.02435,271.58661 566.87958,257.14248 563.2251,247.51747 559.57055,237.89247 558.3081,230.46278 549.76587,225.87085 541.22369,221.27893 521.99957,219.33262 511.97183,219.96588 Z"
         fill-rule="evenodd"
         id="path42" />
      <path
         stroke="#3d85c6"
         stroke-width="3"
         stroke-linejoin="round"
         stroke-linecap="butt"
         d="M 511.97183,219.96588 C 501.94409,220.59913 495.3931,223.01988 489.59939,229.67038 483.80572,236.32088 479.8096,248.70555 477.20971,259.86883 474.60986,271.03213 472.36618,284.14084 474.00021,296.65011 475.63424,309.15942 480.47729,326.29464 487.01391,334.92456 493.55053,343.5545 503.05841,346.41638 513.21991,348.42965 523.38147,350.44293 538.98034,351.78857 547.98303,347.00418 556.98578,342.21979 563.2846,330.28717 567.2362,319.72329 571.18786,309.15942 572.36139,295.65521 571.69287,283.62091 571.02435,271.58661 566.87958,257.14248 563.2251,247.51747 559.57055,237.89247 558.3081,230.46278 549.76587,225.87085 541.22369,221.27893 521.99957,219.33262 511.97183,219.96588 Z"
         fill-rule="evenodd"
         id="path43" />
    </g>
    <g
       id="g28b2f7a1163_1_0.22"
       clip-path="url(#clipPath100)"
       transform="translate(-191.4147,-20.34907)">
      <path
         fill="#6fa8dc"
         d="M 299.62262,184.1009 V 184.1009 C 299.62262,176.75161 305.54514,170.79382 312.85095,170.79382 V 170.79382 C 316.35934,170.79382 319.72403,172.19581 322.2048,174.69137 324.68561,177.18694 326.07932,180.57165 326.07932,184.1009 V 184.1009 C 326.07932,191.4502 320.15677,197.408 312.85095,197.408 V 197.408 C 305.54514,197.408 299.62262,191.4502 299.62262,184.1009 Z"
         fill-rule="evenodd"
         id="path44" />
      <path
         stroke="#3d85c6"
         stroke-width="4"
         stroke-linejoin="round"
         stroke-linecap="butt"
         d="M 299.62262,184.1009 V 184.1009 C 299.62262,176.75161 305.54514,170.79382 312.85095,170.79382 V 170.79382 C 316.35934,170.79382 319.72403,172.19581 322.2048,174.69137 324.68561,177.18694 326.07932,180.57165 326.07932,184.1009 V 184.1009 C 326.07932,191.4502 320.15677,197.408 312.85095,197.408 V 197.408 C 305.54514,197.408 299.62262,191.4502 299.62262,184.1009 Z"
         fill-rule="evenodd"
         id="path45" />
    </g>
    <g
       id="g28b2f7a1163_1_0.23"
       clip-path="url(#clipPath98)"
       transform="translate(-191.4147,-20.34907)">
      <path
         fill="#6fa8dc"
         d="M 302.40976,357.99515 V 357.99515 C 302.40976,350.64585 308.33228,344.68805 315.63809,344.68805 V 344.68805 C 319.14648,344.68805 322.51117,346.09003 324.99194,348.5856 327.47275,351.08118 328.86646,354.46588 328.86646,357.99515 V 357.99515 C 328.86646,365.34442 322.94391,371.30222 315.63809,371.30222 V 371.30222 C 308.33228,371.30222 302.40976,365.34442 302.40976,357.99515 Z"
         fill-rule="evenodd"
         id="path46" />
      <path
         stroke="#3d85c6"
         stroke-width="4"
         stroke-linejoin="round"
         stroke-linecap="butt"
         d="M 302.40976,357.99515 V 357.99515 C 302.40976,350.64585 308.33228,344.68805 315.63809,344.68805 V 344.68805 C 319.14648,344.68805 322.51117,346.09003 324.99194,348.5856 327.47275,351.08118 328.86646,354.46588 328.86646,357.99515 V 357.99515 C 328.86646,365.34442 322.94391,371.30222 315.63809,371.30222 V 371.30222 C 308.33228,371.30222 302.40976,365.34442 302.40976,357.99515 Z"
         fill-rule="evenodd"
         id="path47" />
    </g>
    <g
       id="g28b2f7a1163_1_0.24"
       clip-path="url(#clipPath96)"
       transform="translate(-191.4147,-20.34907)">
      <path
         fill="#6fa8dc"
         d="M 295.49426,261.52234 V 261.52234 C 295.49426,254.17305 301.41681,248.21526 308.72262,248.21526 V 248.21526 C 312.23098,248.21526 315.59567,249.61725 318.07647,252.11281 320.55725,254.60838 321.95096,257.99307 321.95096,261.52234 V 261.52234 C 321.95096,268.87164 316.02844,274.82944 308.72262,274.82944 V 274.82944 C 301.41681,274.82944 295.49426,268.87164 295.49426,261.52234 Z"
         fill-rule="evenodd"
         id="path48" />
      <path
         stroke="#3d85c6"
         stroke-width="4"
         stroke-linejoin="round"
         stroke-linecap="butt"
         d="M 295.49426,261.52234 V 261.52234 C 295.49426,254.17305 301.41681,248.21526 308.72262,248.21526 V 248.21526 C 312.23098,248.21526 315.59567,249.61725 318.07647,252.11281 320.55725,254.60838 321.95096,257.99307 321.95096,261.52234 V 261.52234 C 321.95096,268.87164 316.02844,274.82944 308.72262,274.82944 V 274.82944 C 301.41681,274.82944 295.49426,268.87164 295.49426,261.52234 Z"
         fill-rule="evenodd"
         id="path49" />
    </g>
  </g>
</svg>
